# xmcd CD database file
#
# Track frame offsets:
#        150
#        6501
#        18060
#        29802
#        44553
#        57190
#        74018
#        93966
#        103161
#        115365
#        119597
#        124455
#        127126
#        129838
#        134752
#        140532
#        149674
#        165421
#
# Disc length: 2399 seconds
#
# Revision: 0
# Processed by: cddbd v1.5.2PL0 Copyright (c) Steve Scherf et al.
# Submitted via: CUERipper 2.1.5
#
DISCID=21095d12
DTITLE=Merle Haggard - Okie From Muskogee: Anniversary Edition
DYEAR=2014
DGENRE=
TTITLE0=Opening Theme: Hammin' It Up
TTITLE1=I Take A Lot Of Pride In What I Am
TTITLE2=Corrine Corrina
TTITLE3=Every Fool Has A Rainbow
TTITLE4=T.B. Blues
TTITLE5=When Did Right Become So Wrong
TTITLE6=Philadelphia Lawyer
TTITLE7=Stealin' Corn
TTITLE8=Harold's Super Service
TTITLE9=Medley: Devil Woman
TTITLE10=Medley: I'm Movin On
TTITLE11=Medley: Folsom Prison Blues
TTITLE12=Medley: Jackson
TTITLE13=Medley: Orange Blossom Special
TTITLE14=Medley: Love's Gonna Live Here
TTITLE15=Today I Started Loving You Again
TTITLE16=Okie From Muskogee
TTITLE17=The Fightin' Side Of Me
EXTD=
EXTT0=
EXTT1=
EXTT2=
EXTT3=
EXTT4=
EXTT5=
EXTT6=
EXTT7=
EXTT8=
EXTT9=
EXTT10=
EXTT11=
EXTT12=
EXTT13=
EXTT14=
EXTT15=
EXTT16=
EXTT17=
PLAYORDER=
